<svg id="profile_picture" data-name="profile picture" xmlns="http://www.w3.org/2000/svg" width="57.909" height="57.909" viewBox="0 0 57.909 57.909">
  <path id="Path_236" data-name="Path 236" d="M0,0H57.909V57.909H0Z" fill="none"/>
  <path id="Path_237" data-name="Path 237" d="M26.129,2A24.129,24.129,0,1,0,50.257,26.129,24.138,24.138,0,0,0,26.129,2Zm-11.9,39.282c1.038-2.172,7.359-4.295,11.9-4.295s10.882,2.123,11.9,4.295a19.123,19.123,0,0,1-23.791,0Zm27.241-3.5c-3.45-4.2-11.823-5.622-15.346-5.622s-11.9,1.424-15.346,5.622a19.3,19.3,0,1,1,30.692,0ZM26.129,11.651A8.445,8.445,0,1,0,34.574,20.1,8.424,8.424,0,0,0,26.129,11.651Zm0,12.064A3.619,3.619,0,1,1,29.748,20.1,3.614,3.614,0,0,1,26.129,23.716Z" transform="translate(2.826 2.826)" fill="#134383"/>
</svg>
